<svg height="100%" width="100%" viewBox="0 0 360 256" xmlns="http://www.w3.org/2000/svg"><g transform="translate(0)"><g style="stroke:purple;stroke-width:90"><g style="fill:transparent"><g transform="translate(-45, -10) scale(.07437774524)"><path d="
              M955 3530 c-121 -24 -218 -83 -272 -164 -42 -61 -57 -115 -58 -196 0
              -80 31 -149 132 -290 141 -196 166 -251 182 -391 11 -98 -1 -251 -29 -359 -11
              -41 -60 -194 -109 -340 -181 -537 -210 -760 -135 -1029 83 -298 259 -485 524
              -555 241 -65 475 -56 645 23 107 51 175 114 220 204 80 162 60 228 -140 477
              -131 163 -170 225 -195 309 -20 65 -22 88 -17 190 7 137 17 176 137 523 148
              426 188 624 169 833 -29 309 -244 590 -544 710 -137 55 -380 81 -510 55z
            "></path></g></g></g></g><g transform="translate(114)"><g style="stroke:purple;stroke-width:90"><g style="fill:transparent"><g transform="translate(-45, -10) scale(.07437774524)"><path d="
              M955 3530 c-121 -24 -218 -83 -272 -164 -42 -61 -57 -115 -58 -196 0
              -80 31 -149 132 -290 141 -196 166 -251 182 -391 11 -98 -1 -251 -29 -359 -11
              -41 -60 -194 -109 -340 -181 -537 -210 -760 -135 -1029 83 -298 259 -485 524
              -555 241 -65 475 -56 645 23 107 51 175 114 220 204 80 162 60 228 -140 477
              -131 163 -170 225 -195 309 -20 65 -22 88 -17 190 7 137 17 176 137 523 148
              426 188 624 169 833 -29 309 -244 590 -544 710 -137 55 -380 81 -510 55z
            "></path></g></g></g></g><g transform="translate(228)"><g style="stroke:purple;stroke-width:90"><g style="fill:transparent"><g transform="translate(-45, -10) scale(.07437774524)"><path d="
              M955 3530 c-121 -24 -218 -83 -272 -164 -42 -61 -57 -115 -58 -196 0
              -80 31 -149 132 -290 141 -196 166 -251 182 -391 11 -98 -1 -251 -29 -359 -11
              -41 -60 -194 -109 -340 -181 -537 -210 -760 -135 -1029 83 -298 259 -485 524
              -555 241 -65 475 -56 645 23 107 51 175 114 220 204 80 162 60 228 -140 477
              -131 163 -170 225 -195 309 -20 65 -22 88 -17 190 7 137 17 176 137 523 148
              426 188 624 169 833 -29 309 -244 590 -544 710 -137 55 -380 81 -510 55z
            "></path></g></g></g></g></svg>