<svg width="535" height="250" xmlns="http://www.w3.org/2000/svg"><g transform="translate(0)"><g style="stroke:#011936;stroke-width:9;"><g style="fill:url(#pattern);"><defs><pattern id="pattern" x="0" y="0" width="40" height="40" patternUnits="userSpaceOnUse"><polygon points="15,10 25,10 20,20"></polygon></pattern></defs><polygon points="
            0,244
            84,244
            42,0
          "></polygon></g></g></g><g transform="translate(104)"><g style="stroke:#011936;stroke-width:9;"><g style="fill:url(#pattern);"><defs><pattern id="pattern" x="0" y="0" width="40" height="40" patternUnits="userSpaceOnUse"><polygon points="15,10 25,10 20,20"></polygon></pattern></defs><polygon points="
            0,244
            84,244
            42,0
          "></polygon></g></g></g><g transform="translate(208)"><g style="stroke:#011936;stroke-width:9;"><g style="fill:url(#pattern);"><defs><pattern id="pattern" x="0" y="0" width="40" height="40" patternUnits="userSpaceOnUse"><polygon points="15,10 25,10 20,20"></polygon></pattern></defs><polygon points="
            0,244
            84,244
            42,0
          "></polygon></g></g></g><g transform="translate(312)"><g style="stroke:#011936;stroke-width:9;"><g style="fill:url(#pattern);"><defs><pattern id="pattern" x="0" y="0" width="40" height="40" patternUnits="userSpaceOnUse"><polygon points="15,10 25,10 20,20"></polygon></pattern></defs><polygon points="
            0,244
            84,244
            42,0
          "></polygon></g></g></g><g transform="translate(416)"><g style="stroke:#011936;stroke-width:9;"><g style="fill:url(#pattern);"><defs><pattern id="pattern" x="0" y="0" width="40" height="40" patternUnits="userSpaceOnUse"><polygon points="15,10 25,10 20,20"></polygon></pattern></defs><polygon points="
            0,244
            84,244
            42,0
          "></polygon></g></g></g></svg>