<?xml version="1.0" standalone="no"?>
<!DOCTYPE svg PUBLIC "-//W3C//DTD SVG 20010904//EN"
 "http://www.w3.org/TR/2001/REC-SVG-20010904/DTD/svg10.dtd">
<svg version="1.0" xmlns="http://www.w3.org/2000/svg"
 width="3880.000000pt" height="3880.000000pt" viewBox="0 0 3880.000000 3880.000000"
 preserveAspectRatio="xMidYMid meet">
<metadata>
Created by potrace 1.11, written by Peter Selinger 2001-2013
</metadata>
<g transform="translate(0.000000,3880.000000) scale(0.100000,-0.100000)"
fill="#000000" stroke="none">
<path d="M20089 37445 c-3 -2 -112 -6 -244 -10 -132 -3 -271 -8 -310 -10 -127
-8 -363 -25 -410 -30 -16 -2 -64 -6 -105 -10 -41 -4 -86 -9 -100 -11 -14 -2
-56 -6 -95 -9 -38 -3 -79 -7 -90 -10 -11 -2 -47 -7 -80 -10 -33 -3 -67 -8 -75
-10 -8 -2 -37 -7 -65 -11 -27 -3 -58 -8 -69 -10 -10 -2 -44 -6 -75 -9 -31 -4
-63 -8 -71 -10 -12 -4 -193 -36 -275 -49 -88 -15 -221 -40 -275 -53 -36 -8
-74 -17 -85 -19 -44 -9 -90 -18 -95 -19 -3 -1 -30 -7 -60 -13 -30 -7 -64 -14
-75 -16 -28 -6 -528 -132 -595 -150 -274 -75 -771 -245 -925 -316 -32 -14
-105 -46 -175 -75 -69 -29 -468 -226 -535 -265 -22 -12 -75 -42 -117 -66 -208
-118 -440 -269 -653 -424 -77 -56 -142 -105 -145 -109 -3 -3 -23 -19 -45 -36
-22 -16 -45 -34 -51 -40 -7 -5 -31 -26 -55 -45 -199 -160 -542 -484 -697 -660
-22 -25 -55 -61 -73 -81 -68 -73 -197 -226 -289 -344 -17 -22 -42 -53 -54 -70
-13 -16 -60 -79 -105 -140 -44 -60 -84 -114 -88 -120 -47 -59 -403 -625 -403
-640 0 -2 -14 -28 -32 -57 -118 -199 -338 -654 -465 -963 -104 -254 -255 -662
-277 -750 -1 -5 -19 -59 -38 -120 -75 -228 -251 -879 -273 -1008 -3 -18 -10
-48 -15 -67 -5 -19 -12 -51 -15 -70 -3 -19 -10 -54 -16 -78 -5 -23 -20 -104
-34 -180 -42 -236 -46 -256 -51 -297 -2 -16 -10 -77 -18 -135 -23 -157 -52
-427 -61 -555 -24 -352 -27 -422 -28 -700 -1 -357 11 -674 38 -965 3 -25 7
-74 10 -110 5 -69 13 -143 20 -200 2 -19 7 -60 10 -90 6 -61 14 -122 20 -160
2 -14 6 -45 9 -70 5 -39 55 -377 72 -480 3 -19 17 -98 31 -175 14 -77 27 -151
30 -165 4 -28 82 -414 88 -445 3 -11 7 -29 9 -40 7 -36 17 -79 26 -120 5 -22
35 -148 65 -281 30 -132 82 -346 116 -475 33 -129 62 -241 64 -249 26 -105 47
-188 65 -250 11 -41 22 -82 24 -90 17 -66 190 -676 237 -835 91 -303 110 -368
119 -395 5 -14 23 -72 40 -130 64 -212 112 -366 120 -385 5 -11 10 -29 13 -40
9 -36 204 -646 272 -850 37 -110 68 -204 70 -210 1 -5 5 -17 8 -25 5 -13 188
-566 482 -1455 233 -705 564 -1738 660 -2060 15 -49 30 -101 35 -115 26 -81
98 -336 104 -370 2 -14 9 -45 16 -70 7 -25 13 -49 14 -55 1 -5 5 -23 9 -40 4
-16 9 -41 11 -55 3 -14 17 -83 31 -155 14 -71 27 -141 30 -155 3 -14 7 -34 9
-46 2 -12 7 -45 11 -75 4 -30 8 -56 10 -59 2 -3 6 -28 9 -55 4 -28 8 -59 10
-70 2 -11 7 -46 11 -79 3 -32 8 -68 10 -80 2 -11 6 -42 9 -67 4 -25 8 -57 11
-70 2 -13 6 -51 10 -84 3 -33 8 -78 11 -100 3 -22 7 -63 9 -92 3 -46 9 -98 20
-203 2 -19 7 -82 11 -140 3 -58 8 -125 10 -150 26 -339 26 -1078 -1 -1355 -13
-127 -37 -331 -50 -415 -3 -19 -8 -53 -11 -75 -26 -188 -69 -415 -106 -555
-11 -41 -26 -100 -33 -130 -15 -59 -75 -236 -123 -365 -39 -104 -161 -376
-179 -396 -7 -8 -13 -20 -13 -26 0 -6 -25 -55 -55 -108 -30 -54 -55 -100 -55
-102 0 -7 -138 -241 -224 -378 -107 -172 -415 -633 -544 -815 -95 -133 -416
-587 -498 -705 -19 -27 -61 -86 -91 -130 -338 -480 -603 -911 -777 -1260 -95
-191 -102 -206 -151 -325 -61 -146 -146 -402 -160 -482 -3 -17 -8 -34 -10 -38
-2 -4 -7 -22 -10 -41 -3 -19 -10 -59 -16 -89 -6 -30 -12 -71 -15 -90 -2 -19
-6 -44 -8 -55 -27 -119 -27 -659 -1 -860 2 -16 6 -57 9 -90 5 -58 9 -81 23
-155 3 -19 7 -44 8 -55 3 -30 15 -98 20 -115 2 -8 6 -27 9 -41 9 -55 67 -258
100 -354 60 -173 141 -353 235 -520 78 -139 305 -478 355 -531 6 -6 25 -29 41
-50 17 -21 43 -54 60 -74 41 -48 289 -296 347 -347 147 -127 324 -260 478
-358 41 -26 87 -56 102 -66 15 -11 29 -19 32 -19 3 0 40 -21 83 -46 244 -144
602 -300 943 -410 214 -69 570 -159 705 -179 11 -1 36 -5 55 -9 116 -21 211
-34 290 -41 36 -3 81 -8 100 -11 40 -6 91 -10 270 -21 246 -15 990 -9 1265 11
22 2 85 6 140 10 55 4 116 9 135 12 20 2 65 7 100 9 36 3 83 7 105 9 22 3 71
8 109 11 38 4 78 9 89 11 11 2 45 6 76 9 31 3 72 8 91 11 39 7 74 11 140 19
25 3 56 7 70 10 14 3 43 7 65 10 22 3 49 7 60 9 11 2 43 7 70 10 48 7 78 12
120 20 11 2 40 7 65 11 25 4 54 9 65 11 11 2 45 8 75 14 66 11 92 16 185 36
38 9 84 18 100 21 25 4 98 20 175 38 8 2 67 16 130 30 299 68 901 255 1075
334 35 16 88 38 155 66 185 76 627 290 805 390 155 87 212 120 315 182 233
141 575 368 685 455 6 5 42 32 80 60 68 50 355 276 365 287 3 3 32 28 65 56
33 27 62 52 65 55 3 3 25 23 50 44 142 123 238 214 440 416 124 124 259 263
300 309 41 46 80 89 85 95 51 57 97 110 135 156 25 30 59 70 76 90 90 105 326
416 450 595 104 150 253 378 288 440 9 17 37 64 62 105 48 79 77 129 127 220
16 30 41 75 55 100 40 72 194 378 231 460 31 67 68 149 106 235 73 166 184
460 267 710 59 178 169 562 184 637 7 38 11 59 37 173 30 130 74 354 82 416 3
24 7 51 10 59 2 8 6 38 10 65 3 28 10 77 15 110 5 33 11 83 14 110 28 247 31
285 41 445 4 52 8 111 10 130 22 198 21 933 -1 1248 -10 153 -14 198 -18 247
-3 28 -8 86 -11 130 -3 44 -8 96 -10 115 -12 89 -20 154 -30 245 -17 153 -80
569 -110 720 -7 39 -23 122 -35 185 -28 152 -46 241 -76 380 -40 185 -57 259
-84 370 -11 47 -22 94 -24 105 -6 30 -122 490 -144 570 -10 39 -31 117 -47
175 -15 58 -41 152 -57 210 -17 58 -32 112 -34 120 -2 8 -19 69 -39 135 -19
66 -37 127 -38 135 -4 16 -6 25 -144 480 -52 173 -103 340 -113 370 -11 30
-37 111 -58 180 -133 419 -333 1024 -507 1530 -36 107 -95 278 -130 380 -35
102 -109 318 -165 480 -56 162 -106 306 -110 320 -51 154 -240 701 -244 708
-3 5 -7 19 -10 33 -3 13 -46 146 -96 294 -87 258 -138 412 -200 610 -16 50
-47 149 -70 220 -46 146 -77 245 -90 290 -7 24 -51 175 -86 295 -13 45 -134
524 -139 552 -3 18 -8 42 -10 53 -3 11 -20 106 -39 210 -33 183 -40 227 -51
325 -3 25 -8 68 -11 95 -8 58 -10 79 -18 195 -4 47 -9 108 -11 135 -3 28 -7
95 -10 150 -3 55 -8 129 -10 165 -4 60 -7 122 -20 440 -7 156 -7 530 0 610 12
155 15 175 31 270 3 19 7 46 9 60 12 87 57 258 160 600 20 66 80 232 92 255 6
11 11 23 12 28 0 4 8 23 16 43 8 20 15 38 15 40 0 7 54 124 113 244 125 254
350 622 542 885 28 39 82 113 120 165 83 115 297 403 305 410 3 3 19 23 35 45
17 22 32 42 35 45 3 3 32 41 65 84 33 44 166 213 295 376 129 163 249 314 265
335 26 33 55 69 160 200 13 17 38 48 55 70 17 22 44 56 60 75 67 83 413 539
502 661 54 74 102 139 107 145 18 22 316 463 345 511 16 26 48 77 71 113 113
175 321 577 361 695 2 6 24 65 48 131 45 120 84 251 93 309 2 17 8 44 13 60
46 157 59 559 24 785 -12 81 -47 242 -75 342 -112 410 -380 993 -638 1388 -31
47 -59 90 -63 95 -5 6 -40 53 -78 105 -192 259 -537 619 -724 755 -23 16 -45
35 -51 41 -37 43 -380 279 -575 396 -194 115 -504 279 -640 337 -327 139 -475
194 -745 278 -259 80 -616 169 -825 207 -14 2 -59 11 -100 20 -41 8 -95 18
-120 21 -25 3 -52 8 -60 10 -14 3 -41 7 -150 21 -68 8 -115 16 -120 19 -3 2
-41 6 -85 10 -44 4 -93 8 -110 11 -16 2 -64 6 -105 9 -41 3 -82 8 -90 10 -8 2
-67 7 -130 11 -63 3 -133 8 -155 9 -22 2 -164 6 -315 10 -151 4 -278 9 -281
11 -3 2 -8 2 -10 -1z"/>
</g>
</svg>
